<?xml version="1.0" encoding="UTF-8"?>
<svg id="_I1eXFsbbhYlB8yyGb53BH" class="fl-svgdocument" width="512" height="256" data-svgdocument="" version="1.1" viewBox="0 0 512 256" xmlns="http://www.w3.org/2000/svg">
 <path d="m138.13 68.732c-32.155 0-58.242 26.075-58.242 58.236 0 21.443 17.385 38.828 38.828 38.828s38.822-17.385 38.828-38.828c0-14.283-11.584-25.881-25.885-25.881-14.295 0-25.887 11.598-25.887 25.885 0 7.1541 5.7951 12.943 12.943 12.943s12.943-5.7893 12.943-12.943h-12.943c0-7.1541 5.7951-12.943 12.943-12.943s12.941 5.7893 12.941 12.943c0 14.3-11.59 25.885-25.885 25.885-14.295 0-25.885-11.582-25.885-25.883 0-21.437 17.385-38.828 38.828-38.828 21.449 0 38.82 17.385 38.828 38.822v-8e-3 0.0136-6e-3c-8e-3 28.591-23.18 51.769-51.771 51.769-28.591 0-51.771-23.178-51.771-51.769v6e-3 -0.0136 8e-3c0-39.309 31.878-71.18 71.185-71.18 5.0942 0 10.055 0.55524 14.844 1.5745-10.346-5.1001-21.948-8.0452-34.258-8.0452-42.886 0-77.656 34.77-77.656 77.656 0 42.886 34.77 77.656 77.656 77.656 42.886 0 77.656-34.77 77.656-77.656 0-2.0094-0.15143-3.9818-0.30286-5.9523-2.982-29.368-27.781-52.29-57.939-52.29z" fill="#fff" stroke-width="1.9414" data-uid="o_f4n3l8b12_5"/>
 <path id="_KZwpPj0qQZQrMjsukiYYg" x="0" y="0" dx="0" dy="0" d="m238.67 114.08 12.102-0.29518q0.49197 1.6727 0.49197 3.8373 0 2.1647-0.49197 3.739l-12.102-0.19679v29.42q0 4.3293 4.0341 4.3293h6.7891q0.78714 2.1646 0.78714 4.3785t-0.19678 2.9026q-5.7068 0.68876-11.02 0.68876-10.331 0-10.331-10.135v-31.486l-7.2811 0.0984q-0.39358-1.6727-0.39358-3.6898t0.39358-3.8865l7.2811 0.19679v-8.6586q0-3.5422 1.1807-5.0181 1.1807-1.4759 4.2309-1.4759h3.8373l0.68875 0.68875zm60.315 43.883q-1.1807 3.5422-3.8373 5.2148-5.8052-1.0823-7.8715-6.1004-6.9859 6.6908-14.365 6.6908-3.739 0-6.5432-1.1807t-4.7229-3.1978q-1.9187-2.0171-2.8534-4.6245-0.93474-2.6074-0.93474-5.4608 0-8.0683 5.1656-12.201t13.726-4.1325q2.4598 0 4.8213 0.14759t4.6245 0.54117v-3.8373q0-8.757-8.0682-8.757-5.6084 0-15.448 3.739-2.8534-2.4598-2.9518-7.3795 10.036-4.5261 20.367-4.5261 7.6747 0 11.906 4.0833 4.2309 4.0833 4.2309 12.348v20.171q0 6.1004 2.755 8.4618zm-24.402-2.263q6.2972 0 11.61-5.9036v-9.3474q-1.9679-0.19679-4.1325-0.29518-2.1646-0.0984-4.5261-0.0984-4.5261 0-7.0351 2.2138t-2.509 5.8544q0 3.5422 1.7711 5.5592t4.8213 2.0171zm31.978 3.1486q0.0984-1.6727 1.0823-3.7881 0.98393-2.1155 2.263-3.2962 7.8715 4.3293 12.791 4.3293 5.0181 0 7.4287-1.6727 2.4106-1.6727 2.4106-4.4277 0-4.3293-6.1988-6.6908l-5.51-2.0663q-12.496-4.7229-12.496-14.07 0-6.7891 4.8705-10.676t12.742-3.8865q7.9699 0 15.841 3.5422 0 1.9679-0.83634 4.1325-0.83634 2.1647-2.2138 3.3454-6.9859-3.247-13.086-3.247-3.247 0-5.1656 1.5743t-1.9187 3.9357 1.4267 3.6406q1.4267 1.2791 4.6737 2.5582l5.9036 2.263q12.496 4.8213 12.496 14.759 0 6.7891-5.2148 10.725-5.2148 3.9357-14.169 3.9357t-17.12-4.9197zm79.699-14.661 3.3454 8.1666q2.263 6.002 4.7229 7.6747-2.755 3.1486-6.7891 3.1486-2.5582 0-3.9357-1.3283t-2.5582-4.3785l-3.9357-9.6425q-1.5743-3.8373-3.2962-5.1656-1.7219-1.3283-4.0833-1.3283t-5.51 0.19678v20.958q-1.8695 0.39358-4.9197 0.39358-3.0502 0-5.0181-0.39358v-71.729l0.59036-0.59036h3.9357q3.0502 0 4.2309 1.4759t1.1807 5.0181v36.406l3.3454-0.19679q1.5743 0 2.3614-1.3775l8.6586-13.578q2.4598-4.3293 6.2972-4.3293t5.7068 0.0984l0.59036 0.78715-10.725 17.022q-1.4759 2.3614-3.247 3.8373 6.1004 1.5743 9.0522 8.8554zm51.46-2.755h-28.928q0.29518 6.7891 2.9026 10.43 2.6074 3.6406 8.8062 3.6406 2.9518 0 6.3464-0.88554t7.0351-2.8534q2.4598 2.263 3.247 6.494-7.8715 5.51-18.498 5.51-5.6084 0-9.4458-1.9679t-6.248-5.4116q-2.4106-3.4438-3.493-8.2158-1.0823-4.7721-1.0823-10.282 0-5.4116 1.3775-10.085 1.3775-4.6737 3.9357-8.019 2.5582-3.3454 6.3464-5.264t8.511-1.9187q4.7229 0 8.4126 1.5743 3.6898 1.5743 6.248 4.3785 2.5582 2.8042 3.8865 6.6908 1.3283 3.8865 1.3283 8.4126 0 1.9679-0.14759 3.8865t-0.54116 3.8865zm-18.892-21.253q-9.3474 0-10.036 13.873h19.875v-1.2791q0-5.6084-2.4106-9.1014-2.4106-3.493-7.4287-3.493zm29.321-1.5743q0.98393-3.6406 3.739-5.4116 6.7891 1.4759 8.9538 8.757 3.9357-8.757 12.89-8.757 2.3614 0 5.2148 0.59036 0 5.7068-2.4598 9.6426-0.88554-0.29518-4.0341-0.49197-6.6907 0-10.528 7.4779v32.076q-1.8695 0.39358-5.0673 0.39358t-5.0673-0.39358v-33.749q0-6.6908-3.6406-10.135z" fill="#fff" font-family="Signika" font-size="100px" letter-spacing="0" stroke-width=".98393" data-fl-textpath="" data-uid="o_f4n3l8b12_6" font-scale="contain" href="" offset="0" side="left" space="preserve" text="tasker"/>
</svg>
